<?xml version="1.0" encoding="utf-8"?>
<!-- Generator: Adobe Illustrator 21.1.0, SVG Export Plug-In . SVG Version: 6.00 Build 0)  -->
<svg version="1.1" id="Layer_1" xmlns="http://www.w3.org/2000/svg" xmlns:xlink="http://www.w3.org/1999/xlink" x="0px" y="0px"
	 viewBox="0 0 1000 1000" style="enable-background:new 0 0 1000 1000;" xml:space="preserve">
<style type="text/css">
	.st0{fill:#4585ef;}
</style>
<path class="st0" d="M813.4,692.4c1.8-10.7,4.1-18.2,4.2-25.8c0.8-97.2,1.5-194.3,1.8-291.5c0.2-55.1-0.4-110.2-0.8-165.3
	c-0.1-18.3-9.4-27.7-27.8-27.8c-193.8-1.1-387.7-2-581.5-2.9c-20.1-0.1-27.6,8.3-27.7,30.1c-1.4,172-2.8,344.1-4.4,516.1
	c-0.1,5.7-2.4,11.3-3.7,16.9v55.1c7.6,16.1,19.8,20.7,37.8,20.8c142.1,0.3,284.2,1.9,426.2,2.7c51.7,0.3,103.4-0.3,155.2-0.6
	c16.2-0.1,26.2-9.4,26.6-25.9c0.6-25.1,0.1-50.3,0.6-75.4c0.1-3.6-4.2-12.5,6.6-8.8v-11.6C821.2,696.2,816.1,693.8,813.4,692.4z
	 M774.4,356.7c40.6,86,44.9,174.5,10.1,264c-0.3,0.9-1.7,4.2-4,9.1L614,467.5c-14-49.3-59.1-85.5-112.8-86l146.9-150.6
	c4.2,2.2,7.3,3.9,7.6,4C703.6,267.3,749,303.2,774.4,356.7z M274.1,288.4c46.8-50.7,105.6-82,173.4-91.1
	c58.4-7.9,117.6-7.8,172.9,19c0.4,0.2,2.1,1.1,4.6,2.4l-165.7,170c-45.4,16.6-77.8,60.2-77.8,111.3c0,0,0,0.1,0,0.1L229.6,352
	c2.1-4,4.1-7.8,5.4-10C246.2,322.9,259.2,304.6,274.1,288.4z M189.1,544.8c-8.5-42.7,5.3-123.3,28.5-169.5l171.9,167.6
	c16.6,42.7,57.1,73.3,105.1,75.5l-151,154.9c-6.4-3.4-11.9-6.3-14.3-7.9C248.9,713,207.2,636.3,189.1,544.8z M507.2,813.3
	c-46.1,1.8-90.3-6.6-132.6-24.5c-0.9-0.4-3.8-1.7-7.6-3.7l167.4-171.7c46.6-14.1,81.1-56.2,83.9-106.7L768.4,653
	c-5,8.7-11.1,18.6-18.4,28.8C690.1,766,609.7,809.2,507.2,813.3z"/>
</svg>
