<?xml version="1.0" encoding="utf-8"?>
<!-- Generator: Adobe Illustrator 21.1.0, SVG Export Plug-In . SVG Version: 6.00 Build 0)  -->
<svg version="1.1" id="Layer_1" xmlns="http://www.w3.org/2000/svg" xmlns:xlink="http://www.w3.org/1999/xlink" x="0px" y="0px"
	 viewBox="0 0 1000 1000" style="enable-background:new 0 0 1000 1000;" xml:space="preserve">
<style type="text/css">
	.st0{fill:#FFFFFF;}
</style>
<path d="M649.5,409.2c-17.9,7.9-35.1,17.9-51.9,28c-9.4,5.7-14.4-0.5-17.7-6c-2.2-3.8-1.6-11.7,1.1-15.6
	c30.3-44.6,73.6-71.3,123.7-88.2c4.6-1.5,9.2-2.9,13.7-4.7c1.2-0.5,1.9-2,4-4.4c-20.6-27.2-47-46.4-72.9-66.3
	c-2-1.5-29.7-18.4-30.6-18.9c-10.1-6.4-17.9-0.5-25.6,3.6c-36.3,19.3-61.2,49.1-71.8,88.5c-4.5,16.8-16.5,24.9-26.8,35.7
	c-4.3,4.5-9.1,8.4-16.4,15.1c-12.4-55.9-2.5-106.2,17.4-157.4c-4.4-1.2-8.2-3.2-12-3.1c-42,1-81.6,13.2-120.6,27.1
	c-4.5,1.6-8.4,9-9.9,14.4c-12,43-1.9,82.3,23,118.1c10.7,15.4,22.7,30.3,36.3,43c11.6,10.9,11.1,18.5,0.1,27.9
	c-1.4,1.2-2.1,3-3.9,5.5c-30.9-10.2-57.9-27.4-80.7-49.6c-18.1-17.6-32.8-38.9-48.1-59.2c-9.4-12.4-10.8-13.1-20.4-0.4
	c-2.6,3.5-25.3,43-27.2,47.3c-7.7,17.7-14,35.9-21.4,53.7c-3.5,8.5-2.5,14.9,3.6,22.3c36.3,43.8,83.6,59.9,138.9,56.7
	c27.1-1.5,27.3-1.5,44.5,23.3C342.4,579,282.8,583.7,217.5,574c4.7,15.9,6.5,29.1,12.3,40.2c13.6,26.5,28.7,52.3,43.8,78
	c6,10.2,16,11.5,27.5,10.9c55.5-2.9,94.1-33.1,125.3-75.8c5.4-7.4,10.8-14.8,15-22.9c4.3-8,8.7-9.7,17.3-5.8
	c8.2,3.7,12.8,7.1,9.5,17.2c-4.9,15.1-7.9,30.9-13.1,45.9c-2,5.8-7.4,10.7-11.9,15.3c-28.5,29.3-53.8,54.5-82.2,83.9
	c5.8,3.3,21.3,10.7,25.8,12.1c25.6,8.1,51.5,15.9,77.7,21.6c15.8,3.4,32.6,3.3,49,3.1c5.1-0.1,11.4-4.5,15-8.8
	c33.4-40.3,40.5-86.3,27.6-136.1c-3-11.7-5.5-23.6-10.1-34.7c-4.5-11,1.5-16.2,8.6-21.7c8.9-6.9,12.3,2.2,15.9,6.6
	c32.6,39.2,51,84.6,57,135.1c0.9,7.6,1.7,15.2,2.6,23.8c35.8-7.4,117.9-93,141.8-146.7c-16.6-37.1-54.9-68.1-151.3-91.8
	c-4.4-1.8,3.3-13.6,5.2-14.2c18.7-3.5,38.2-6.2,99.2,22.4c16.7,7.3,32.5,16.9,48,26.6c10.2,6.4,14,2.8,15.3-7.2
	c5.3-41.9,5.8-83.8-2.9-125.3c-1-4.7-4.9-10.5-9.1-12.7C734.8,390.6,692.1,390.5,649.5,409.2z M594.2,515.9c7.4,5.1,6,10.7-2.8,12.5
	c-10.4,2.2-14.1,5.7-5.8,15c1.7,1.9,2.7,6.6,1.5,8.3c-1.3,2-5.5,3.1-8.3,2.8c-10.6-0.9-15.1,1.7-9.6,12.8c1,2,0.7,6.5-0.6,7.3
	c-2.4,1.4-6.5,2.2-8.8,1c-9.5-4.8-14.7-4-14,8.2c0.2,2.4-0.9,6.8-2.1,7.1c-2.7,0.6-6.8,0.1-8.6-1.6c-7.9-7.6-13-7.6-16.2,4
	c-0.7,2.5-3.7,6.1-5.8,6.2c-2.4,0.1-5.8-2.6-7.3-5c-5.4-8.6-10-9.5-15.9-0.4c-1.3,2.1-5.6,4.1-7.7,3.4c-2.1-0.7-4-4.4-4.6-7.1
	c-2.2-9.6-6.1-12.5-14.5-5.3c-2.1,1.8-6.4,3.3-8.4,2.4c-2-1-3.7-5.4-3.3-8.1c1.7-12.9-2.9-14.8-14-10c-1.6,0.7-8.6-6.1-8.3-6.5
	c11.1-18.3-0.9-17.9-16.6-16.1c2.3-5.7,2.9-10.2,5.4-13.1c6.7-7.5,4.2-11.4-4.1-14.5c-3-1.2-5.4-3.9-8.1-6c2.2-2.6,3.9-5.9,6.7-7.7
	c6.7-4.2,7.7-9,1.3-13.5c-11.1-7.8-10.4-11.1,2.9-14.9c17.9-5,2.9-12.8-1-21.6c4.7-1.4,8.7-3.5,12.7-3.6c8.5-0.2,13.6-1.5,8.7-11.7
	c-1.2-2.6-0.5-7.2,1.2-9.6c0.9-1.3,6.2-1.1,8.5,0.2c9.7,5.3,13.5,2.6,13.1-8.2c-0.1-2.7,1-7.1,2.8-7.9c2.1-1,6.7,0.1,8.4,2
	c8.1,9.3,12.4,6.7,15.7-3.8c0.8-2.7,3.6-6.1,6-6.4c2-0.3,5.6,2.6,6.9,5c4.6,8.2,9.1,8.8,15.4,1.8c2.2-2.4,5.8-3.6,8.7-5.3
	c1.4,2.7,3.4,5.2,4.1,8c2.4,9.7,6.6,12.3,14.8,4.9c2-1.8,5.7-1.8,8.6-2.7c0.9,3.2,3,6.6,2.6,9.6c-1.6,10.7,1.5,14,11.9,9.5
	c2.5-1.1,7.8-1,8.4,0.2c1.4,2.7,1.7,7.1,0.4,9.8c-4.7,9.9-2.1,13.5,8.7,12.5c2.7-0.2,7.6,1.3,7.9,2.8c0.5,2.9-0.4,7.3-2.4,9.3
	c-8.6,8.6-5.7,12.6,4.8,15c2.4,0.6,6,3.1,6,4.6c-0.1,2.6-2,6.3-4.2,7.6C586.3,504.5,584.3,509,594.2,515.9z"/>
<path class="st0" d="M176.4,800.4c7.6,16.1,19.8,20.7,37.8,20.8c142.1,0.3,284.2,1.9,426.2,2.7c51.7,0.3,103.4-0.3,155.2-0.6
	c16.2-0.1,26.2-9.4,26.6-25.9c0.6-25.1,0.1-50.3,0.6-75.4c0.1-3.6-4.2-12.5,6.6-8.8c0,38.7,0,77.4,0,116.1c-217.7,0-435.4,0-653.1,0
	C176.4,819.8,176.4,810.1,176.4,800.4z"/>
<path d="M501.6,562.6c-34.9-0.7-59-26.3-58.3-61.8c0.7-33.6,26.9-58.1,61.5-57.4c33.5,0.7,58.5,27.2,57.8,61.3
	C561.9,538.3,535.6,563.2,501.6,562.6z"/>
</svg>
