<svg xmlns="http://www.w3.org/2000/svg" width="171" height="34"><g fill="none" fill-rule="evenodd"><path fill="none" d="M0 0h171v34H0z"/><path fill="white" d="M43.242 30.573h-2.51v-3.548H32.99v3.548h-2.51v-5.842h1.112c.406-.956.729-2.014.968-3.173.239-1.159.424-2.354.555-3.584a48.14 48.14 0 0 0 .251-3.764c.036-1.278.054-2.515.054-3.71V8.959h8.388V24.73h1.434v5.842zm12.151-4.767a6.824 6.824 0 0 1-1.971 1.075c-.741.263-1.566.395-2.474.395-1.864 0-3.333-.723-4.409-2.169-1.075-1.446-1.613-3.567-1.613-6.363 0-1.457.102-2.795.305-4.014.203-1.219.526-2.276.968-3.173.442-.896 1.01-1.595 1.703-2.097.693-.501 1.517-.752 2.473-.752.74 0 1.422.15 2.043.448.621.299 1.147.782 1.577 1.452.43.669.765 1.535 1.004 2.598.239 1.064.358 2.36.358 3.89v1.54H47.83c0 2.056.28 3.61.842 4.66.562 1.052 1.404 1.578 2.527 1.578.789 0 1.488-.137 2.097-.412.61-.275 1.094-.544 1.452-.807l.645 2.151zM28.868 8.959v18.066h-2.76v-8.101h-4.159v8.1h-2.796V8.96h2.796v7.67h4.159V8.96h2.76zm32.153 9.069v8.997h-2.796V8.959h2.796v8.352l4.337-8.352h2.832l-4.48 8.495 5.125 9.57h-3.047l-4.767-8.996zm14.374 9.248c-1.936 0-3.453-.771-4.552-2.312-1.1-1.542-1.65-3.866-1.65-6.972 0-1.41.138-2.689.413-3.836.275-1.147.681-2.12 1.219-2.921a5.747 5.747 0 0 1 2.007-1.864c.8-.442 1.727-.663 2.778-.663.813 0 1.47.09 1.972.269.501.179.955.4 1.362.663l-.395 2.652a6.077 6.077 0 0 0-1.344-.878 3.67 3.67 0 0 0-1.63-.376c-1.005 0-1.829.561-2.474 1.684-.645 1.124-.968 2.832-.968 5.126 0 2.27.269 4.021.807 5.252.537 1.23 1.38 1.846 2.527 1.846.693 0 1.29-.114 1.792-.34.502-.228.92-.485 1.254-.772l.646 2.08a6.15 6.15 0 0 1-1.613.985c-.598.251-1.315.377-2.151.377zm-36.347-16.06h-3.119v.324c0 .955-.018 2-.054 3.136a49.449 49.449 0 0 1-.233 3.46 40.846 40.846 0 0 1-.501 3.458 16.908 16.908 0 0 1-.897 3.137h4.804V11.217zm11.327-.214c-.86 0-1.47.484-1.828 1.452-.359.967-.586 2.264-.681 3.889h4.624c0-.765-.036-1.476-.108-2.133a8.56 8.56 0 0 0-.34-1.703c-.156-.478-.37-.848-.646-1.11a1.42 1.42 0 0 0-1.021-.395zM87.67 27.06c-.143 0-.268-.006-.376-.018a2.765 2.765 0 0 0-.305-.018l-.179-1.685c.191.096.478.143.86.143.956 0 1.697-.424 2.223-1.272.526-.848.992-1.942 1.398-3.28L85.95 1.395h1.792l4.445 16.525 4.337-16.525h1.65l-5.198 19.357a29.21 29.21 0 0 1-.79 2.437 8.382 8.382 0 0 1-1.057 2.008 4.956 4.956 0 0 1-1.47 1.362c-.56.334-1.224.502-1.989.502zM104 25.913c.573 0 1.081-.096 1.523-.287a4.5 4.5 0 0 0 1.13-.681 4.01 4.01 0 0 0 .931-.968l.538 1.398a4.005 4.005 0 0 1-1.004 1.004c-.334.262-.77.495-1.308.699-.538.203-1.153.304-1.846.304-1.816 0-3.22-.818-4.212-2.455-.992-1.637-1.488-3.937-1.488-6.9 0-2.988.49-5.306 1.47-6.954.98-1.65 2.402-2.474 4.266-2.474.932 0 1.72.161 2.365.484.646.323 1.171.723 1.578 1.2l-.466 1.793a6.444 6.444 0 0 0-1.47-1.434c-.574-.406-1.243-.609-2.007-.609-1.386 0-2.408.693-3.065 2.079-.657 1.386-.986 3.358-.986 5.915 0 2.485.323 4.42.968 5.806.645 1.387 1.673 2.08 3.083 2.08zm9.396-5.162a43.47 43.47 0 0 1-.394 2.724c-.144.789-.34 1.452-.592 1.99-.25.537-.573.95-.967 1.236-.395.287-.89.43-1.488.43a1.415 1.415 0 0 1-.502-.072 1.111 1.111 0 0 1-.215-.071l-.143-1.506c.024.024.083.048.179.072.072.024.275.036.61.036.549 0 .997-.424 1.343-1.273.347-.848.58-2.097.7-3.745.023-.359.047-.801.071-1.327.024-.525.054-1.093.09-1.702.036-.61.065-1.243.09-1.9l.071-1.954c.072-1.481.132-3.059.18-4.731h7.527v18.066h-1.685v-16.74H113.9a1459.71 1459.71 0 0 1-.143 4.158l-.072 1.756c-.024.598-.054 1.171-.09 1.721s-.071 1.07-.107 1.56c-.036.49-.066.913-.09 1.272zm11.53 12.008c-.19 0-.364-.006-.519-.018a3.485 3.485 0 0 1-.412-.054l-.18-1.577c.144.048.305.084.485.108.179.024.388.035.627.035.621 0 1.147-.28 1.577-.842.43-.561.777-1.344 1.04-2.348l.143-.537-4.48-18.568h1.684l2.868 11.793c.167.693.31 1.374.43 2.043.12.67.227 1.35.322 2.043h.108c.12-.717.25-1.41.394-2.079.144-.669.299-1.338.466-2.007l2.796-11.793h1.506l-4.624 18.998a12.497 12.497 0 0 1-.556 1.792 6.43 6.43 0 0 1-.842 1.523 4.21 4.21 0 0 1-1.183 1.076c-.454.275-1.004.412-1.65.412zm13.738-22.403v16.668h-1.649V8.959h7.635v1.398h-5.986zm16.547 4.086c0-.478.011-.914.035-1.308.024-.395.06-.783.108-1.165h-.108c-.12.406-.262.794-.43 1.165-.167.37-.346.758-.537 1.165l-5.88 12.725h-1.433V8.959h1.577v12.546a20.966 20.966 0 0 1-.143 2.545h.107c.12-.407.263-.807.43-1.201a35 35 0 0 1 .538-1.201l5.879-12.69h1.47v18.067h-1.613V14.443z"/><path fill="red" fill-rule="nonzero" d="M10.856 17.203l-4.373 9.822h-3.19l4.803-10.503c-1.123-.574-2.03-1.416-2.724-2.527-.693-1.111-1.04-2.623-1.04-4.535 0-1.338.198-2.515.592-3.53.394-1.016.932-1.858 1.613-2.527a6.632 6.632 0 0 1 2.384-1.506 8.228 8.228 0 0 1 2.867-.502h4.123v25.63h-2.76v-9.822h-2.295zM13.15 3.725h-1.47a4.44 4.44 0 0 0-1.612.305 3.692 3.692 0 0 0-1.398.968c-.406.442-.735 1.027-.986 1.756-.25.729-.376 1.631-.376 2.706 0 1.028.113 1.888.34 2.581.227.693.538 1.255.932 1.685.395.43.86.735 1.398.914.538.18 1.105.269 1.703.269h1.47V3.725z"/></g></svg>
